<?xml version="1.0" encoding="UTF-8"?> <svg xmlns="http://www.w3.org/2000/svg" xmlns:xlink="http://www.w3.org/1999/xlink" id="Layer_1" viewBox="0 0 352.13 94.51"><defs><linearGradient id="linear-gradient" x1="120.1" y1="47.98" x2="13.5" y2="47.98" gradientUnits="userSpaceOnUse"><stop offset="0" stop-color="#09f781"></stop><stop offset=".63" stop-color="#03938a"></stop><stop offset="1" stop-color="#005d8f"></stop></linearGradient><linearGradient id="linear-gradient-2" x1="120.1" y1="52.41" x2="13.5" y2="52.41" xlink:href="#linear-gradient"></linearGradient></defs><path d="m114.25,31.89c5.65,1.27,9.72,6.34,9.72,12.14v31.15c0,.32.26.58.58.58h10.22c.32,0,.58-.26.58-.58v-31.15c0-11.7-8.62-21.75-20.19-23.54-1.2-.18-2.41-.28-3.62-.28s-2.42.09-3.62.28c-11.56,1.78-20.19,11.83-20.19,23.54v31.15c0,.32.26.58.58.58h10.22c.32,0,.58-.26.58-.58v-31.15c0-5.79,4.07-10.86,9.72-12.14.89-.2,1.8-.3,2.72-.3s1.83.1,2.72.3h0Z" style="fill:url(#linear-gradient); fill-rule:evenodd;"></path><path d="m271.81,4.18c-.32,0-.58.26-.58.58v70.42c0,.32.26.58.58.58h10.22c.32,0,.58-.26.58-.58V4.76c0-.32-.26-.58-.58-.58h-10.22Z" style="fill:#003d4f; fill-rule:evenodd;"></path><path d="m233,18.64c-2.56.32-5.08.98-7.46,1.97-.22.09-.35.29-.35.53v11.7c0,.23.11.41.32.52.21.1.42.08.61-.06,2.23-1.69,4.83-2.81,7.59-3.27.94-.16,1.9-.24,2.85-.24s1.91.08,2.85.24l.23.04c8.23,1.47,14.21,8.67,14.21,17.02s-6.11,15.68-14.44,17.06c-.94.16-1.9.24-2.85.24s-1.91-.08-2.85-.24l-.24-.04c-8.22-1.47-14.2-8.68-14.2-17.02V3.68c0-.32-.26-.58-.58-.58h-10.22c-.32,0-.58.26-.58.58v43.4c0,14.44,10.77,26.68,25.12,28.45,1.18.15,2.36.22,3.55.22s2.37-.07,3.55-.22c14.34-1.77,25.12-14,25.12-28.45s-10.77-26.68-25.12-28.45c-1.18-.15-2.36-.22-3.55-.22s-2.37.07-3.55.22h0Z" style="fill:#003d4f; fill-rule:evenodd;"></path><path d="m170.39,18.64c-14.34,1.77-25.12,14-25.12,28.45s10.77,26.68,25.12,28.45c1.18.15,2.36.22,3.55.22s2.37-.07,3.55-.22c2.56-.32,5.08-.98,7.46-1.97.22-.09.35-.29.35-.53v-11.7c0-.23-.11-.41-.32-.52-.21-.1-.42-.08-.61.06-2.23,1.69-4.83,2.81-7.59,3.27-.94.16-1.9.24-2.85.24s-1.91-.08-2.85-.24l-.24-.04c-8.22-1.47-14.2-8.68-14.2-17.02s6.11-15.68,14.44-17.06c.94-.16,1.9-.24,2.85-.24s1.91.08,2.85.24l.23.04c8.23,1.47,14.21,8.67,14.21,17.02v27.19c0,.32.26.58.58.58h10.22c.32,0,.58-.26.58-.58v-27.19c0-14.44-10.77-26.68-25.12-28.45-1.18-.15-2.36-.22-3.55-.22s-2.37.07-3.55.22h0Z" style="fill:#003d4f; fill-rule:evenodd;"></path><path d="m331.82,59.31c-1.88,1.88-4.14,3.28-6.6,4.13-.05.02-.1.04-.16.05-1.72.57-3.56.88-5.47.88-3.99,0-7.77-1.38-10.78-3.77-2.25-1.79-4.07-4.15-5.21-6.91,0-.02-.02-.05-.02-.07-.83-2.02-1.28-4.23-1.28-6.54s.46-4.53,1.28-6.55c0-.02.01-.04.02-.07,1.13-2.75,2.93-5.09,5.16-6.87,0,0,0,0,0,0,2.96-2.38,6.72-3.8,10.82-3.8s7.81,1.39,10.82,3.8c2.23,1.79,4.03,4.13,5.17,6.88,0,.02.02.04.02.07.12.28.22.57.33.86h-27.63c-.62,1.78-.96,3.69-.96,5.68s.34,3.91.96,5.69h38.96c.29,0,.54-.21.57-.51l.2-1.63c.15-1.18.22-2.36.22-3.55s-.07-2.37-.22-3.55c-1.77-14.34-14-25.12-28.45-25.12s-26.68,10.77-28.45,25.12c-.15,1.18-.22,2.36-.22,3.55s.07,2.37.22,3.55c1.77,14.34,14,25.12,28.45,25.12,7.62,0,14.88-3,20.27-8.4l1.31-1.31c.22-.22.22-.59,0-.81l-7.23-7.23c-.22-.22-.59-.22-.81,0l-1.31,1.31h0Z" style="fill:#003d4f; fill-rule:evenodd;"></path><circle cx="44.42" cy="52.41" r="38.99" style="fill:url(#linear-gradient-2);"></circle><path d="m64.1,67.61c-6.23,7.91-16.81,11.76-27.13,8.93-13.76-3.77-21.86-17.99-18.09-31.75s17.99-21.86,31.75-18.09c9.44,2.59,16.22,10.09,18.33,18.99l-31.82,11.39-4.98-15.33" style="fill:none; stroke:#fff; stroke-miterlimit:10; stroke-width:10px;"></path><circle cx="70.33" cy="59.38" r="5.16" style="fill:#fff;"></circle></svg> 